<svg 
  xmlns="http://www.w3.org/2000/svg" 
  viewBox="-16 -4.75 79.20000076293945 64.5" 
  data-asc="0.859" 
  width="79.20000076293945" 
  height="64.5">
  <defs/>
  <g fill="white">
    <g transform="translate(0, 0)">
      <rect 
        x="-16" 
        y="-4.75" 
        width="79.20000076293945" 
        height="64.5" 
        fill="black"/>
      <path d="M12.50 43.55Q9.95 43.55 7.70 42.60Q5.45 41.65 3.70 39.70Q1.95 37.75 0.98 34.73Q0 31.70 0 27.55Q0 23.90 0.77 21.15Q1.55 18.40 2.85 16.53Q4.15 14.65 5.80 13.48Q7.45 12.30 9.25 11.78Q11.05 11.25 12.80 11.25Q16.40 11.25 18.93 12.83Q21.45 14.40 22.80 17.35L19.10 20.40L18.75 20.70L18.40 20.30Q18.45 19.90 18.35 19.53Q18.25 19.15 17.80 18.50Q16.80 17.25 15.65 16.85Q14.50 16.45 13.30 16.45Q12.00 16.45 10.78 17.13Q9.55 17.80 8.55 19.15Q7.55 20.50 6.95 22.53Q6.35 24.55 6.35 27.30Q6.35 29.95 6.83 31.98Q7.30 34 8.15 35.43Q9.00 36.85 10.18 37.58Q11.35 38.30 12.75 38.30Q13.95 38.30 14.90 38Q15.85 37.70 16.65 36.98Q17.45 36.25 18.15 35L22.55 38.25Q20.70 41.20 18.25 42.38Q15.80 43.55 12.50 43.55L12.50 43.55ZM33.30 43.75Q30.85 43.75 28.60 42.93Q26.35 42.10 24.90 40.30L27.95 35.25L28.20 34.85L28.65 35.10Q28.75 35.50 28.90 35.90Q29.05 36.30 29.65 36.90Q30.30 37.35 31.05 37.63Q31.80 37.90 32.65 37.90Q33.85 37.90 34.65 37.18Q35.45 36.45 35.88 35.05Q36.30 33.65 36.30 31.65L36.30 16.90L30.65 16.90L30.65 11.80L47.20 11.80L47.20 16.90L42.65 16.90L42.65 32.25Q42.70 35.15 41.90 37.30Q41.10 39.45 39.75 40.88Q38.40 42.30 36.73 43.03Q35.05 43.75 33.30 43.75L33.30 43.75Z"/>
    </g>
  </g>
</svg>